<?xml version="1.0" encoding="utf-8"?>
<!-- Generator: Adobe Illustrator 22.0.1, SVG Export Plug-In . SVG Version: 6.00 Build 0)  -->
<svg version="1.1" id="Favicon" xmlns="http://www.w3.org/2000/svg" xmlns:xlink="http://www.w3.org/1999/xlink" x="0px" y="0px"
	 viewBox="0 0 64 64" style="enable-background:new 0 0 64 64;" xml:space="preserve">
<style type="text/css">
	.st0{fill:#995432;}
	.st1{fill:#F9BA9C;}
	.st2{fill:#743011;}
</style>
<path class="st0" d="M32.1,55.1c-3.4,0-6.6-0.6-9.6-1.7c-2.9-1.2-5.5-2.8-7.6-4.9s-3.8-4.5-5-7.3C8.6,38.4,8,35.3,8,32
	c0-3.3,0.6-6.4,1.8-9.2c1.2-2.8,2.9-5.2,5-7.3s4.7-3.7,7.6-4.9c2.9-1.2,6.1-1.7,9.6-1.7c3.4,0,6.6,0.6,9.5,1.7
	c2.9,1.1,5.4,2.8,7.6,4.8c2.2,2.1,3.8,4.5,5,7.3c1.2,2.8,1.8,5.9,1.8,9.2s-0.6,6.4-1.8,9.2c-1.2,2.8-2.9,5.2-5,7.3
	c-2.2,2.1-4.7,3.7-7.6,4.8C38.7,54.5,35.5,55.1,32.1,55.1z"/>
<g id="Mask_1_">
	<path class="st1" d="M52.1,24.7c-3.1-4.8-8.5-5.6-12.8-2.8c-2,1.3-4.4,2-7,2s-5-0.7-7-2c-4.3-2.8-9.7-1.9-12.8,2.8
		c-1.2,1.9-1.9,4.2-1.9,6.6s0.7,4.7,1.9,6.6c3.1,4.8,8.5,5.6,12.8,2.8c2-1.3,4.4-2,7-2s5,0.7,7,2c4.3,2.8,9.7,1.9,12.8-2.8
		c1.2-1.9,1.9-4.2,1.9-6.6S53.3,26.6,52.1,24.7z"/>
</g>
<circle id="Eye_2_" class="st2" cx="22.6" cy="31.2" r="2.8"/>
<circle id="Eye_3_" class="st2" cx="42.1" cy="31.2" r="2.8"/>
</svg>
