<svg id="Medium" xmlns="http://www.w3.org/2000/svg" viewBox="0 0 257.25 25.78"><defs><style>.cls-1{fill:#004156;}</style></defs><title>logo</title><path id="H" class="cls-1" d="M20,35.6h-3.6V10.4H20Zm14.8-11.23H19.61V21.24H34.77Zm-.33-14H38V35.6h-3.6Z" transform="translate(-16.37 -10.11)"/><path id="E" class="cls-1" d="M56.4,32.47H71.09V35.6H52.8V10.4H70.59v3.13H56.4Zm-.32-11.2H69v3.06h-13Z" transform="translate(-16.37 -10.11)"/><path class="cls-1" d="M84.12,35.6V10.4H94a13.9,13.9,0,0,1,5.65,1,8,8,0,0,1,3.6,3,8.59,8.59,0,0,1,1.26,4.71,8.51,8.51,0,0,1-1.26,4.7,8.06,8.06,0,0,1-3.6,3,13.9,13.9,0,0,1-5.65,1H86.1l1.62-1.65V35.6Zm3.6-9L86.1,24.87h7.74a8,8,0,0,0,5.24-1.49,5.18,5.18,0,0,0,1.78-4.2A5.09,5.09,0,0,0,99.08,15a8,8,0,0,0-5.24-1.48H86.1l1.62-1.8Zm13.25,9-6.41-9.14h3.86l6.48,9.14Z" transform="translate(-16.37 -10.11)"/><path class="cls-1" d="M128.87,35.89a14.57,14.57,0,0,1-5.34-1,12.84,12.84,0,0,1-4.27-2.72,12.6,12.6,0,0,1-2.81-4.09,12.8,12.8,0,0,1-1-5.11,12.8,12.8,0,0,1,1-5.11,12.6,12.6,0,0,1,2.81-4.09,13,13,0,0,1,4.25-2.72,14.56,14.56,0,0,1,5.36-1,14.33,14.33,0,0,1,5.31,1,12.63,12.63,0,0,1,4.25,2.7,12.16,12.16,0,0,1,2.81,4.08,13.1,13.1,0,0,1,1,5.15,13.1,13.1,0,0,1-1,5.15,12.16,12.16,0,0,1-2.81,4.08,12.63,12.63,0,0,1-4.25,2.7A14.33,14.33,0,0,1,128.87,35.89Zm0-3.21a10.25,10.25,0,0,0,3.87-.72,9.17,9.17,0,0,0,3.1-2,9.55,9.55,0,0,0,2-3.08,10.39,10.39,0,0,0,0-7.7,9.55,9.55,0,0,0-2-3.08,9.17,9.17,0,0,0-3.1-2A10.84,10.84,0,0,0,125,14a9.3,9.3,0,0,0-5.19,5.11,10.39,10.39,0,0,0,0,7.7A9.3,9.3,0,0,0,125,32,10.29,10.29,0,0,0,128.87,32.68Z" transform="translate(-16.37 -10.11)"/><path class="cls-1" d="M154.94,35.6V10.4h10.62A15.45,15.45,0,0,1,172.67,12a11.76,11.76,0,0,1,4.78,4.43A12.54,12.54,0,0,1,179.16,23a12.54,12.54,0,0,1-1.71,6.59A11.76,11.76,0,0,1,172.67,34a15.45,15.45,0,0,1-7.11,1.58Zm3.6-3.13h6.8a11.65,11.65,0,0,0,5.42-1.19A8.62,8.62,0,0,0,174.3,28,9.59,9.59,0,0,0,175.56,23a9.56,9.56,0,0,0-1.26-5,8.71,8.71,0,0,0-3.54-3.31,11.65,11.65,0,0,0-5.42-1.19h-6.8Z" transform="translate(-16.37 -10.11)"/><path class="cls-1" d="M195.47,32.47h14.69V35.6H191.87V10.4h17.79v3.13H195.47Zm-.32-11.2h13v3.06h-13Z" transform="translate(-16.37 -10.11)"/><path class="cls-1" d="M230.54,35.89A17.42,17.42,0,0,1,225,35a11.29,11.29,0,0,1-4.14-2.29l1.33-2.81A11.62,11.62,0,0,0,225.89,32a13.33,13.33,0,0,0,4.65.83,10.37,10.37,0,0,0,3.56-.51,4.23,4.23,0,0,0,2-1.38,3.31,3.31,0,0,0,.64-2,2.75,2.75,0,0,0-.84-2.09,6.42,6.42,0,0,0-2.2-1.28,25.2,25.2,0,0,0-3-.84c-1.08-.24-2.16-.52-3.26-.85a14.56,14.56,0,0,1-3-1.24,6.07,6.07,0,0,1-2.18-2,5.92,5.92,0,0,1-.83-3.3,6.57,6.57,0,0,1,1-3.58,7.14,7.14,0,0,1,3.16-2.63,13.07,13.07,0,0,1,5.46-1,16.57,16.57,0,0,1,4.35.58,12.12,12.12,0,0,1,3.75,1.65l-1.19,2.88a11.46,11.46,0,0,0-3.42-1.56,13.11,13.11,0,0,0-3.49-.49,9.58,9.58,0,0,0-3.49.54,4.22,4.22,0,0,0-2,1.44,3.43,3.43,0,0,0-.63,2,2.77,2.77,0,0,0,.84,2.12,6.09,6.09,0,0,0,2.2,1.26,29.65,29.65,0,0,0,3,.85c1.08.25,2.17.53,3.26.84a14.09,14.09,0,0,1,3,1.23,6.08,6.08,0,0,1,2.17,2,5.73,5.73,0,0,1,.83,3.24,6.51,6.51,0,0,1-1,3.55A7.27,7.27,0,0,1,236,34.9,13.34,13.34,0,0,1,230.54,35.89Z" transform="translate(-16.37 -10.11)"/><path class="cls-1" d="M264,35.89a14.33,14.33,0,0,1-5.31-1,12.31,12.31,0,0,1-4.22-2.7,12.71,12.71,0,0,1-2.79-4.08,12.93,12.93,0,0,1-1-5.15,12.93,12.93,0,0,1,1-5.15,12.56,12.56,0,0,1,7-6.78,15.14,15.14,0,0,1,10.69,0,11,11,0,0,1,4.2,2.94l-2.34,2.26a9.57,9.57,0,0,0-3.24-2.25,10.12,10.12,0,0,0-3.86-.73,10.65,10.65,0,0,0-3.94.72,9.54,9.54,0,0,0-3.15,2A9.23,9.23,0,0,0,255,19.13a10.62,10.62,0,0,0,0,7.74A9.23,9.23,0,0,0,257.1,30a9.54,9.54,0,0,0,3.15,2,10.65,10.65,0,0,0,3.94.72,10.12,10.12,0,0,0,3.86-.73,9.29,9.29,0,0,0,3.24-2.29l2.34,2.27a11.2,11.2,0,0,1-4.2,3A14.2,14.2,0,0,1,264,35.89Z" transform="translate(-16.37 -10.11)"/><g id="Eye"><circle class="cls-1" cx="107.21" cy="12.45" r="1.57"/></g><g id="Eye-2" data-name="Eye"><circle class="cls-1" cx="118.09" cy="12.45" r="1.57"/></g><g id="Mask"><path class="cls-1" d="M135.78,19a2.54,2.54,0,0,1,2.16,1.32,4.3,4.3,0,0,1,0,4.64,2.54,2.54,0,0,1-2.16,1.32,2.91,2.91,0,0,1-1.55-.49,9.83,9.83,0,0,0-10.5,0,2.91,2.91,0,0,1-1.55.49A2.54,2.54,0,0,1,120,24.93a4.3,4.3,0,0,1,0-4.64A2.54,2.54,0,0,1,122.18,19a2.91,2.91,0,0,1,1.55.49,9.83,9.83,0,0,0,10.5,0,2.91,2.91,0,0,1,1.55-.49m0-2.5a5.39,5.39,0,0,0-2.89.88,7.33,7.33,0,0,1-7.82,0,5.39,5.39,0,0,0-2.89-.88,5,5,0,0,0-4.26,2.46,6.81,6.81,0,0,0,0,7.36,5,5,0,0,0,4.26,2.46,5.39,5.39,0,0,0,2.89-.88,7.33,7.33,0,0,1,7.82,0,5.39,5.39,0,0,0,2.89.88A5,5,0,0,0,140,26.29a6.81,6.81,0,0,0,0-7.36,5,5,0,0,0-4.26-2.46Z" transform="translate(-16.37 -10.11)"/></g></svg>