<?xml version="1.0" encoding="utf-8"?>
<!-- Generator: Adobe Illustrator 22.0.1, SVG Export Plug-In . SVG Version: 6.00 Build 0)  -->
<svg version="1.1" id="Medium" xmlns="http://www.w3.org/2000/svg" xmlns:xlink="http://www.w3.org/1999/xlink" x="0px" y="0px"
	 viewBox="0 0 46 46" style="enable-background:new 0 0 46 46;" xml:space="preserve">
<style type="text/css">
	.st0{fill:#FFFFFF;}
</style>
<path id="Circle" class="st0" d="M23,35.9c-1.9,0-3.7-0.3-5.3-1c-1.6-0.6-3.1-1.6-4.3-2.7s-2.1-2.5-2.8-4.1c-0.7-1.6-1-3.3-1-5.1
	c0-1.8,0.3-3.6,1-5.1c0.7-1.6,1.6-2.9,2.8-4.1s2.6-2.1,4.2-2.7c1.6-0.6,3.4-1,5.4-1c1.9,0,3.7,0.3,5.3,1c1.6,0.6,3,1.5,4.2,2.7
	c1.2,1.2,2.1,2.5,2.8,4.1c0.7,1.6,1,3.3,1,5.1s-0.3,3.6-1,5.1c-0.7,1.6-1.6,2.9-2.8,4.1c-1.2,1.2-2.6,2.1-4.2,2.7
	C26.7,35.6,25,35.9,23,35.9z M23,32.7c1.4,0,2.7-0.2,3.9-0.7c1.2-0.5,2.2-1.2,3.1-2c0.9-0.9,1.6-1.9,2.1-3.1
	c0.5-1.2,0.7-2.5,0.7-3.9s-0.2-2.7-0.7-3.9c-0.5-1.2-1.2-2.2-2.1-3.1s-1.9-1.6-3.1-2c-1.2-0.5-2.5-0.7-3.9-0.7
	c-1.4,0-2.7,0.2-3.9,0.7s-2.2,1.2-3.1,2s-1.6,1.9-2.1,3.1c-0.5,1.2-0.7,2.5-0.7,3.9s0.2,2.7,0.7,3.9c0.5,1.2,1.2,2.2,2.1,3.1
	c0.9,0.9,1.9,1.6,3.1,2C20.3,32.4,21.6,32.7,23,32.7z"/>
<g id="Eye_2_">
	<circle class="st0" cx="17.7" cy="22.6" r="1.6"/>
</g>
<g id="Eye_3_">
	<circle class="st0" cx="28.6" cy="22.6" r="1.6"/>
</g>
<path id="Mask_1_" class="st0" d="M29.9,19c0.9,0,1.6,0.5,2.2,1.3c0.4,0.7,0.7,1.5,0.7,2.3s-0.2,1.6-0.7,2.3
	c-0.6,0.9-1.3,1.3-2.2,1.3c-0.5,0-1-0.2-1.5-0.5c-1.6-1-3.4-1.5-5.3-1.5s-3.7,0.5-5.3,1.5c-0.5,0.3-1,0.5-1.5,0.5
	c-0.9,0-1.6-0.5-2.2-1.3c-0.4-0.7-0.7-1.5-0.7-2.3s0.2-1.6,0.7-2.3c0.6-0.9,1.3-1.3,2.2-1.3c0.5,0,1,0.2,1.5,0.5
	c1.6,1,3.4,1.5,5.3,1.5s3.7-0.5,5.3-1.5C28.9,19.1,29.4,19,29.9,19 M29.9,16.5c-1,0-2,0.3-2.9,0.9c-1.1,0.7-2.5,1.1-3.9,1.1
	s-2.8-0.4-3.9-1.1c-0.9-0.6-1.9-0.9-2.9-0.9c-1.6,0-3.2,0.8-4.3,2.5C11.4,20,11,21.3,11,22.6s0.4,2.6,1.1,3.7
	c1.1,1.7,2.6,2.5,4.3,2.5c1,0,2-0.3,2.9-0.9c1.1-0.7,2.5-1.1,3.9-1.1s2.8,0.4,3.9,1.1c0.9,0.6,1.9,0.9,2.9,0.9
	c1.6,0,3.2-0.8,4.3-2.5c0.7-1.1,1.1-2.3,1.1-3.7s-0.4-2.6-1.1-3.7C33.1,17.3,31.6,16.5,29.9,16.5L29.9,16.5z"/>
</svg>
